<?xml version="1.0" encoding="utf-8"?>
<!-- Generator: Adobe Illustrator 23.1.1, SVG Export Plug-In . SVG Version: 6.00 Build 0)  -->
<svg version="1.1" id="Layer_1" xmlns="http://www.w3.org/2000/svg" xmlns:xlink="http://www.w3.org/1999/xlink" x="0px" y="0px"
	 viewBox="0 0 650.3 131.6" style="enable-background:new 0 0 650.3 131.6;" xml:space="preserve">
<style type="text/css">
	.st0{fill:#FFFFFF;}
</style>
<g>
	<g>
		<path class="st0" d="M0,9.4c0,5.3,4.1,9.4,9.4,9.4s9.4-4.1,9.4-9.4S14.7,0,9.4,0C4.1,0.1,0,4.1,0,9.4"/>
		<path class="st0" d="M540.8,9.4c0,5.3,4.1,9.4,9.4,9.4c5.3,0,9.4-4.1,9.4-9.4S555.5,0,550.2,0C544.9,0.1,540.8,4.1,540.8,9.4"/>
		<path class="st0" d="M0,31.6C0,36.9,4.1,41,9.4,41s9.4-4.1,9.4-9.4s-4.1-9.4-9.4-9.4C4.1,22.3,0,26.9,0,31.6"/>
		<path class="st0" d="M67.3,31.6c0,5.3,4.1,9.4,9.4,9.4s9.4-4.1,9.4-9.4s-4.1-9.4-9.4-9.4C72,22.3,67.3,26.9,67.3,31.6"/>
		<path class="st0" d="M135.1,31.6c0,5.3,4.1,9.4,9.4,9.4s9.4-4.1,9.4-9.4s-4.1-9.4-9.4-9.4S135.1,26.9,135.1,31.6"/>
		<path class="st0" d="M225.1,31.6c0,5.3,4.1,9.4,9.4,9.4c5.3,0,9.4-4.1,9.4-9.4s-4.1-9.4-9.4-9.4C229.8,22.3,225.1,26.9,225.1,31.6
			"/>
		<path class="st0" d="M293,31.6c0,5.3,4.1,9.4,9.4,9.4s9.4-4.1,9.4-9.4s-4.1-9.4-9.4-9.4C297,22.3,293,26.9,293,31.6"/>
		<path class="st0" d="M315.8,31.6c0,5.3,4.1,9.4,9.4,9.4s9.4-4.1,9.4-9.4s-4.1-9.4-9.4-9.4C319.8,22.3,315.8,26.9,315.8,31.6"/>
		<path class="st0" d="M338,31.6c0,5.3,4.1,9.4,9.4,9.4s9.4-4.1,9.4-9.4s-4.1-9.4-9.4-9.4C342.6,22.3,338,26.9,338,31.6"/>
		<path class="st0" d="M428,31.6c0,5.3,4.1,9.4,9.4,9.4s9.4-4.1,9.4-9.4s-4.1-9.4-9.4-9.4C432.1,22.3,428,26.9,428,31.6"/>
		<path class="st0" d="M450.8,31.6c0,5.3,4.1,9.4,9.4,9.4s9.4-4.1,9.4-9.4s-4.1-9.4-9.4-9.4C454.9,22.3,450.8,26.9,450.8,31.6"/>
		<path class="st0" d="M473,31.6c0,5.3,4.1,9.4,9.4,9.4s9.4-4.1,9.4-9.4s-4.1-9.4-9.4-9.4C477.7,22.3,473,26.9,473,31.6"/>
		<path class="st0" d="M540.8,31.6c0,5.3,4.1,9.4,9.4,9.4c5.3,0,9.4-4.1,9.4-9.4s-4.1-9.4-9.4-9.4C544.9,22.3,540.8,26.9,540.8,31.6
			"/>
		<path class="st0" d="M563.6,31.6c0,5.3,4.1,9.4,9.4,9.4s9.4-4.1,9.4-9.4s-4.1-9.4-9.4-9.4S563.6,26.9,563.6,31.6"/>
		<path class="st0" d="M585.9,31.6c0,5.3,4.1,9.4,9.4,9.4c5.3,0,9.4-4.1,9.4-9.4s-4.1-9.4-9.4-9.4C590,22.3,585.9,26.9,585.9,31.6"
			/>
		<path class="st0" d="M608.7,31.6c0,5.3,4.1,9.4,9.4,9.4c5.3,0,9.4-4.1,9.4-9.4s-4.1-9.4-9.4-9.4C612.8,22.3,608.7,26.9,608.7,31.6
			"/>
		<path class="st0" d="M0,54.4c0,5.3,4.1,9.4,9.4,9.4s9.4-4.1,9.4-9.4S14.7,45,9.4,45S0,49.2,0,54.4"/>
		<path class="st0" d="M45.1,54.4c0,5.3,4.1,9.4,9.4,9.4s9.9-4.1,9.9-9.4S60.3,45,55,45S45.1,49.2,45.1,54.4"/>
		<path class="st0" d="M135.1,54.4c0,5.3,4.1,9.4,9.4,9.4s9.4-4.1,9.4-9.4s-4.1-9.4-9.4-9.4S135.1,49.2,135.1,54.4"/>
		<path class="st0" d="M225.1,54.4c0,5.3,4.1,9.4,9.4,9.4c5.3,0,9.4-4.1,9.4-9.4s-4.1-9.4-9.4-9.4C229.8,45.1,225.1,49.2,225.1,54.4
			"/>
		<path class="st0" d="M270.7,54.4c0,5.3,4.1,9.4,9.4,9.4s9.4-4.1,9.4-9.4s-4.1-9.4-9.4-9.4C274.8,45.1,270.7,49.2,270.7,54.4"/>
		<path class="st0" d="M360.8,54.4c0,5.3,4.1,9.4,9.4,9.4s9.4-4.1,9.4-9.4s-4.1-9.4-9.4-9.4C364.9,45.1,360.8,49.2,360.8,54.4"/>
		<path class="st0" d="M405.8,54.4c0,5.3,4.1,9.4,9.4,9.4s9.4-4.1,9.4-9.4s-4.1-9.4-9.4-9.4S405.8,49.2,405.8,54.4"/>
		<path class="st0" d="M495.8,54.4c0,5.3,4.1,9.4,9.4,9.4s9.4-4.1,9.4-9.4s-4.1-9.4-9.4-9.4C499.9,45.1,495.8,49.2,495.8,54.4"/>
		<path class="st0" d="M540.8,54.4c0,5.3,4.1,9.4,9.4,9.4c5.3,0,9.4-4.1,9.4-9.4s-4.1-9.4-9.4-9.4C544.9,45.1,540.8,49.2,540.8,54.4
			"/>
		<path class="st0" d="M631.5,54.4c0,5.3,4.1,9.4,9.4,9.4s9.4-4.1,9.4-9.4s-4.1-9.4-9.4-9.4S631.5,49.2,631.5,54.4"/>
		<path class="st0" d="M0,77.2c0,5.3,4.1,9.4,9.4,9.4s9.4-4.1,9.4-9.4s-4.1-9.4-9.4-9.4C4.1,67.3,0,72,0,77.2"/>
		<path class="st0" d="M22.3,77.2c0,5.3,4.1,9.4,9.4,9.4s9.4-4.1,9.4-9.4s-4.1-9.4-9.4-9.4S22.3,72,22.3,77.2"/>
		<path class="st0" d="M67.3,77.2c0,5.3,4.1,9.4,9.4,9.4s9.4-4.1,9.4-9.4s-4.1-9.4-9.4-9.4C72,67.3,67.3,72,67.3,77.2"/>
		<path class="st0" d="M157.9,77.2c0,5.3,4.1,9.4,9.4,9.4s9.4-4.1,9.4-9.4s-4.1-9.4-9.4-9.4S157.9,72,157.9,77.2"/>
		<path class="st0" d="M180.1,77.2c0,5.3,4.1,9.4,9.4,9.4s9.4-4.1,9.4-9.4s-4.1-9.4-9.4-9.4S180.1,72,180.1,77.2"/>
		<path class="st0" d="M202.9,77.2c0,5.3,4.1,9.4,9.4,9.4c5.3,0,9.9-4.1,9.9-9.4s-4.1-9.4-9.4-9.4C207.6,67.9,202.9,72,202.9,77.2"
			/>
		<path class="st0" d="M225.1,77.2c0,5.3,4.1,9.4,9.4,9.4c5.3,0,9.4-4.1,9.4-9.4s-4.1-9.4-9.4-9.4C229.8,67.3,225.1,72,225.1,77.2"
			/>
		<path class="st0" d="M270.7,77.2c0,5.3,4.1,9.4,9.4,9.4s9.4-4.1,9.4-9.4s-4.1-9.4-9.4-9.4C274.8,67.3,270.7,72,270.7,77.2"/>
		<path class="st0" d="M360.8,77.2c0,5.3,4.1,9.4,9.4,9.4s9.4-4.1,9.4-9.4s-4.1-9.4-9.4-9.4C364.9,67.9,360.8,72,360.8,77.2"/>
		<path class="st0" d="M405.8,77.2c0,5.3,4.1,9.4,9.4,9.4s9.4-4.1,9.4-9.4s-4.1-9.4-9.4-9.4C409.9,67.3,405.8,72,405.8,77.2"/>
		<path class="st0" d="M495.8,77.2c0,5.3,4.1,9.4,9.4,9.4s9.4-4.1,9.4-9.4s-4.1-9.4-9.4-9.4C499.9,67.3,495.8,72,495.8,77.2"/>
		<path class="st0" d="M540.8,77.2c0,5.3,4.1,9.4,9.4,9.4c5.3,0,9.4-4.1,9.4-9.4s-4.1-9.4-9.4-9.4C544.9,67.9,540.8,72,540.8,77.2"
			/>
		<path class="st0" d="M631.5,77.2c0,5.3,4.1,9.4,9.4,9.4s9.4-4.1,9.4-9.4s-4.1-9.4-9.4-9.4C635.6,67.3,631.5,72,631.5,77.2"/>
		<path class="st0" d="M0,99.4c0,5.3,4.1,9.4,9.4,9.4s9.4-4.1,9.4-9.4S14.7,90,9.4,90C4.1,90.1,0,94.2,0,99.4"/>
		<path class="st0" d="M90.1,99.4c0,5.3,4.1,9.4,9.4,9.4s9.4-4.1,9.4-9.4s-3.5-9.4-9.4-9.4S90.1,94.2,90.1,99.4"/>
		<path class="st0" d="M225.1,99.4c0,5.3,4.1,9.4,9.4,9.4c5.3,0,9.4-4.1,9.4-9.4s-4.1-9.4-9.4-9.4C229.8,90.1,225.1,94.2,225.1,99.4
			"/>
		<path class="st0" d="M293,99.4c0,5.3,4.1,9.4,9.4,9.4s9.4-4.1,9.4-9.4s-4.1-9.4-9.4-9.4C297,90.1,293,94.2,293,99.4"/>
		<path class="st0" d="M315.8,99.4c0,5.3,4.1,9.4,9.4,9.4s9.4-4.1,9.4-9.4s-4.1-9.4-9.4-9.4C319.8,90.1,315.8,94.2,315.8,99.4"/>
		<path class="st0" d="M338,99.4c0,5.3,4.1,9.4,9.4,9.4s9.4-4.1,9.4-9.4s-4.1-9.4-9.4-9.4C342.6,90.1,338,94.2,338,99.4"/>
		<path class="st0" d="M428,99.4c0,5.3,4.1,9.4,9.4,9.4s9.4-4.1,9.4-9.4s-4.1-9.4-9.4-9.4C432.1,90.1,428,94.2,428,99.4"/>
		<path class="st0" d="M450.8,99.4c0,5.3,4.1,9.4,9.4,9.4s9.4-4.1,9.4-9.4s-4.1-9.4-9.4-9.4C454.9,90.1,450.8,94.2,450.8,99.4"/>
		<path class="st0" d="M473,99.4c0,5.3,4.1,9.4,9.4,9.4s9.4-4.1,9.4-9.4s-4.1-9.4-9.4-9.4C477.7,90.1,473,94.2,473,99.4"/>
		<path class="st0" d="M540.8,99.4c0,5.3,4.1,9.4,9.4,9.4c5.3,0,9.4-4.1,9.4-9.4s-4.1-9.4-9.4-9.4C544.9,90.1,540.8,94.2,540.8,99.4
			"/>
		<path class="st0" d="M563.6,99.4c0,5.3,4.1,9.4,9.4,9.4s9.4-4.1,9.4-9.4S578.3,90,573,90S563.6,94.2,563.6,99.4"/>
		<path class="st0" d="M585.9,99.4c0,5.3,4.1,9.4,9.4,9.4c5.3,0,9.4-4.1,9.4-9.4s-4.1-9.4-9.4-9.4C590,90.1,585.9,94.2,585.9,99.4"
			/>
		<path class="st0" d="M608.7,99.4c0,5.3,4.1,9.4,9.4,9.4c5.3,0,9.4-4.1,9.4-9.4s-4.1-9.4-9.4-9.4C612.8,90.1,608.7,94.2,608.7,99.4
			"/>
		<path class="st0" d="M157.9,122.2c0,5.3,4.1,9.4,9.4,9.4s9.4-4.1,9.4-9.4s-4.1-9.4-9.4-9.4S157.9,117,157.9,122.2"/>
		<path class="st0" d="M180.1,122.2c0,5.3,4.1,9.4,9.4,9.4s9.4-4.1,9.4-9.4s-4.1-9.4-9.4-9.4S180.1,117,180.1,122.2"/>
		<path class="st0" d="M202.9,122.2c0,5.3,4.1,9.4,9.4,9.4c5.3,0,9.4-4.1,9.4-9.4s-4.1-9.4-9.4-9.4C207,112.9,202.9,117,202.9,122.2
			"/>
	</g>
</g>
</svg>
