<svg xmlns="http://www.w3.org/2000/svg" viewBox="0 0 80 80"><defs><style>.cls-1{fill:#352e2a;}.cls-2{fill:#fff;}</style></defs><title>mark</title><g id="Layer_2" data-name="Layer 2"><g id="Layer_1-2" data-name="Layer 1"><rect class="cls-1" width="80" height="71"/><path class="cls-2" d="M5,29.43a1,1,0,1,0,1-1,1,1,0,0,0-1,1"/><path class="cls-2" d="M63.23,29.43a1,1,0,1,0,1-1,1,1,0,0,0-1,1"/><path class="cls-2" d="M5,31.86a1,1,0,1,0,1-1,1,1,0,0,0-1,1"/><path class="cls-2" d="M12.28,31.86a1,1,0,1,0,1-1,1,1,0,0,0-1,1"/><path class="cls-2" d="M19.56,31.86a1,1,0,1,0,1-1,1,1,0,0,0-1,1"/><path class="cls-2" d="M29.26,31.86a1,1,0,1,0,1-1,1,1,0,0,0-1,1"/><path class="cls-2" d="M36.54,31.86a1,1,0,1,0,1-1,1,1,0,0,0-1,1"/><path class="cls-2" d="M39,31.86a1,1,0,1,0,1-1,1,1,0,0,0-1,1"/><path class="cls-2" d="M41.4,31.86a1,1,0,1,0,1-1,1,1,0,0,0-1,1"/><path class="cls-2" d="M51.1,31.86a1,1,0,1,0,1-1,1,1,0,0,0-1,1"/><path class="cls-2" d="M53.53,31.86a1,1,0,1,0,1-1,1,1,0,0,0-1,1"/><path class="cls-2" d="M56,31.86a1,1,0,1,0,1-1,1,1,0,0,0-1,1"/><path class="cls-2" d="M63.23,31.86a1,1,0,1,0,1-1,1,1,0,0,0-1,1"/><path class="cls-2" d="M65.66,31.86a1,1,0,1,0,1-1,1,1,0,0,0-1,1"/><path class="cls-2" d="M68.08,31.86a1,1,0,1,0,1-1,1,1,0,0,0-1,1"/><path class="cls-2" d="M70.51,31.86a1,1,0,1,0,1-1,1,1,0,0,0-1,1"/><path class="cls-2" d="M5,34.29a1,1,0,1,0,1-1,1,1,0,0,0-1,1"/><path class="cls-2" d="M9.85,34.29a1,1,0,1,0,1-1,1,1,0,0,0-1,1"/><path class="cls-2" d="M19.56,34.29a1,1,0,1,0,1-1,1,1,0,0,0-1,1"/><path class="cls-2" d="M29.26,34.29a1,1,0,1,0,1-1,1,1,0,0,0-1,1"/><path class="cls-2" d="M34.12,34.29a1,1,0,1,0,1-1,1,1,0,0,0-1,1"/><path class="cls-2" d="M43.82,34.29a1,1,0,1,0,1-1,1,1,0,0,0-1,1"/><path class="cls-2" d="M48.67,34.29a1,1,0,1,0,1-1,1,1,0,0,0-1,1"/><path class="cls-2" d="M58.38,34.29a1,1,0,1,0,1-1,1,1,0,0,0-1,1"/><path class="cls-2" d="M63.23,34.29a1,1,0,1,0,1-1,1,1,0,0,0-1,1"/><path class="cls-2" d="M72.94,34.29a1,1,0,1,0,1-1,1,1,0,0,0-1,1"/><path class="cls-2" d="M5,36.71a1,1,0,1,0,1-1,1,1,0,0,0-1,1"/><path class="cls-2" d="M7.43,36.71a1,1,0,1,0,1-1,1,1,0,0,0-1,1"/><path class="cls-2" d="M12.28,36.71a1,1,0,1,0,1-1,1,1,0,0,0-1,1"/><path class="cls-2" d="M22,36.71a1,1,0,1,0,1-1,1,1,0,0,0-1,1"/><path class="cls-2" d="M24.41,36.71a1,1,0,1,0,1-1,1,1,0,0,0-1,1"/><path class="cls-2" d="M26.84,36.71a1,1,0,1,0,1-1,1,1,0,0,0-1,1"/><path class="cls-2" d="M29.26,36.71a1,1,0,1,0,1-1,1,1,0,0,0-1,1"/><path class="cls-2" d="M34.12,36.71a1,1,0,1,0,1-1,1,1,0,0,0-1,1"/><path class="cls-2" d="M43.82,36.71a1,1,0,1,0,1-1,1,1,0,0,0-1,1"/><path class="cls-2" d="M48.67,36.71a1,1,0,1,0,1-1,1,1,0,0,0-1,1"/><path class="cls-2" d="M58.38,36.71a1,1,0,1,0,1-1,1,1,0,0,0-1,1"/><path class="cls-2" d="M63.23,36.71a1,1,0,1,0,1-1,1,1,0,0,0-1,1"/><path class="cls-2" d="M72.94,36.71a1,1,0,1,0,1-1,1,1,0,0,0-1,1"/><path class="cls-2" d="M5,39.14a1,1,0,1,0,1-1,1,1,0,0,0-1,1"/><path class="cls-2" d="M14.7,39.14a1,1,0,1,0,1-1,1,1,0,0,0-1,1"/><path class="cls-2" d="M29.26,39.14a1,1,0,1,0,1-1,1,1,0,0,0-1,1"/><path class="cls-2" d="M36.54,39.14a1,1,0,1,0,1-1,1,1,0,0,0-1,1"/><path class="cls-2" d="M39,39.14a1,1,0,1,0,1-1,1,1,0,0,0-1,1"/><path class="cls-2" d="M41.4,39.14a1,1,0,1,0,1-1,1,1,0,0,0-1,1"/><path class="cls-2" d="M51.1,39.14a1,1,0,1,0,1-1,1,1,0,0,0-1,1"/><path class="cls-2" d="M53.53,39.14a1,1,0,1,0,1-1,1,1,0,0,0-1,1"/><path class="cls-2" d="M56,39.14a1,1,0,1,0,1-1,1,1,0,0,0-1,1"/><path class="cls-2" d="M63.23,39.14a1,1,0,1,0,1-1,1,1,0,0,0-1,1"/><path class="cls-2" d="M65.66,39.14a1,1,0,1,0,1-1,1,1,0,0,0-1,1"/><path class="cls-2" d="M68.08,39.14a1,1,0,1,0,1-1,1,1,0,0,0-1,1"/><path class="cls-2" d="M70.51,39.14a1,1,0,1,0,1-1,1,1,0,0,0-1,1"/><path class="cls-2" d="M22,41.57a1,1,0,1,0,1-1,1,1,0,0,0-1,1"/><path class="cls-2" d="M24.41,41.57a1,1,0,1,0,1-1,1,1,0,0,0-1,1"/><path class="cls-2" d="M26.84,41.57a1,1,0,1,0,1-1,1,1,0,0,0-1,1"/><polygon class="cls-1" points="40 80 32.5 65 47.5 65 40 80"/></g></g></svg>